<?xml version="1.0" standalone="no"?>
<!DOCTYPE svg PUBLIC "-//W3C//DTD SVG 20010904//EN"
 "http://www.w3.org/TR/2001/REC-SVG-20010904/DTD/svg10.dtd">
<svg version="1.0" xmlns="http://www.w3.org/2000/svg"
 width="939.000000pt" height="314.000000pt" viewBox="0 0 939.000000 314.000000"
 preserveAspectRatio="xMidYMid meet">

<g transform="translate(0.000000,314.000000) scale(0.100000,-0.100000)"
fill="#f5a425" stroke="none">
<path d="M6946 2475 c-147 -52 -154 -246 -11 -300 83 -32 172 1 209 78 59 126
-68 269 -198 222z m79 -45 c26 0 74 -51 81 -86 12 -67 -42 -134 -109 -134 -92
0 -149 106 -95 175 23 30 75 57 96 50 8 -3 20 -5 27 -5z"/>
<path d="M6323 2176 c-184 -45 -330 -189 -341 -337 l-4 -56 -72 -6 c-152 -12
-233 -83 -265 -237 -12 -53 -11 -56 14 -77 53 -46 98 -22 108 60 4 26 14 59
23 73 38 58 130 73 182 29 37 -31 38 -31 77 0 27 20 34 33 39 79 22 170 176
326 339 343 157 16 293 -103 321 -280 3 -20 8 -52 11 -71 4 -25 13 -37 35 -46
35 -15 45 -9 105 58 104 116 251 202 383 223 243 40 498 -141 567 -401 8 -30
15 -92 15 -136 0 -158 -58 -277 -198 -404 -118 -106 -112 -132 34 -161 138
-28 210 -84 234 -182 21 -82 -17 -187 -92 -251 -42 -36 -118 -66 -168 -66 -35
0 -50 -17 -50 -57 0 -49 34 -67 113 -61 124 10 247 101 305 225 23 50 27 71
27 153 0 111 -18 158 -91 239 -40 44 -117 104 -147 114 -6 2 4 23 25 48 92
114 136 223 145 364 20 311 -175 613 -452 701 -191 61 -415 17 -611 -121 -36
-25 -68 -45 -72 -45 -4 0 -20 26 -37 58 -38 73 -127 162 -196 195 -94 46 -203
58 -306 33z"/>
<path d="M5645 2150 c-60 -25 -99 -94 -93 -162 6 -58 30 -95 84 -125 50 -29
98 -29 154 0 151 75 95 298 -74 296 -28 0 -60 -4 -71 -9z m144 -66 c57 -47 50
-137 -13 -175 -79 -48 -176 7 -176 102 0 22 10 41 34 65 45 45 108 48 155 8z"/>
<path d="M2010 2056 c0 -19 -20 -22 -21 -3 0 6 -7 -4 -14 -23 -8 -22 -14 -28
-14 -16 -1 11 -4 16 -8 13 -11 -11 20 -58 34 -53 7 3 13 -1 13 -10 0 -8 -4
-12 -10 -9 -5 3 -10 1 -10 -5 0 -6 11 -15 24 -21 13 -6 27 -21 30 -33 5 -20 5
-21 -9 -2 -17 23 -20 14 -4 -15 5 -11 14 -17 20 -14 5 4 9 2 9 -3 0 -6 11 -13
24 -16 13 -3 27 -13 30 -23 6 -15 5 -15 -11 -1 -10 8 -26 18 -36 21 -16 6 -16
4 -2 -23 14 -27 25 -35 47 -31 4 0 5 -6 1 -15 -5 -13 -7 -13 -14 -2 -15 22
-10 -1 6 -32 9 -17 20 -30 26 -30 6 0 7 -4 4 -10 -3 -5 -1 -10 4 -10 6 0 10
-3 10 -7 -1 -5 -1 -14 0 -22 1 -11 4 -11 18 0 15 12 15 12 6 -5 -7 -14 -5 -28
9 -57 16 -34 27 -43 49 -41 3 1 5 -13 4 -30 -1 -22 5 -39 21 -55 13 -13 22
-29 20 -36 -1 -6 -1 -9 1 -4 11 18 20 4 17 -23 -3 -23 0 -30 14 -30 15 0 15
-2 2 -10 -14 -9 -7 -15 14 -11 5 1 6 -5 2 -14 -3 -9 5 -33 19 -55 14 -22 25
-44 25 -49 0 -5 5 -13 11 -17 8 -4 9 1 4 17 -5 18 -4 21 4 9 6 -8 8 -22 5 -31
-2 -10 2 -19 12 -23 9 -4 14 -12 10 -21 -3 -9 1 -18 9 -21 8 -4 13 -10 10 -15
-3 -4 9 -35 27 -68 18 -33 35 -56 38 -50 4 5 12 -2 18 -16 16 -36 15 -43 -4
-19 -14 18 -15 18 -4 -3 11 -24 43 -30 68 -14 16 10 34 81 20 81 -5 0 -7 4 -3
9 3 5 -4 26 -16 46 -18 30 -24 34 -37 23 -13 -11 -14 -10 -4 9 10 18 9 28 -8
55 -11 18 -20 27 -20 21 0 -7 -5 -13 -10 -13 -7 0 -7 6 0 19 7 13 7 22 0 26
-5 3 -10 -1 -10 -9 0 -8 -5 -18 -10 -21 -7 -4 -9 2 -5 18 5 17 2 27 -7 30 -7
2 -5 3 5 2 21 -4 21 -4 -5 41 -19 32 -23 35 -33 20 -11 -14 -12 -13 -12 9 0
13 3 22 7 20 19 -12 -5 38 -31 66 -16 17 -27 35 -24 39 6 10 -61 131 -81 146
-8 7 -11 14 -5 15 5 2 3 13 -6 24 -13 17 -15 17 -9 2 4 -12 2 -16 -5 -11 -6 3
-8 15 -6 26 3 10 0 21 -7 24 -6 2 -12 13 -13 23 -2 25 -38 83 -46 74 -11 -10
-8 -25 3 -18 6 3 7 -1 3 -10 -9 -26 -23 4 -16 37 6 30 -14 70 -51 101 -11 10
-15 15 -7 11 10 -5 12 -3 5 7 -19 31 -12 37 40 38 28 1 94 3 146 5 72 3 80 2
35 -4 l-60 -7 63 -1 c61 -2 100 -19 84 -37 -4 -5 -1 -5 6 -1 6 4 12 17 13 29
1 20 2 20 8 -3 9 -29 3 -52 -10 -44 -5 3 -4 -6 2 -19 8 -17 18 -24 37 -23 24
1 27 -3 28 -35 1 -20 5 -42 9 -50 6 -11 5 -12 -6 -1 -7 6 -12 28 -11 47 2 19
-2 35 -8 35 -5 0 -10 -5 -10 -11 0 -5 -4 -7 -10 -4 -6 3 -7 -1 -4 -9 3 -9 10
-14 14 -11 4 2 8 -6 8 -19 -1 -25 29 -76 43 -76 5 0 9 5 9 12 0 6 3 8 6 5 4
-4 1 -13 -5 -21 -10 -11 -10 -19 -1 -33 11 -17 11 -17 6 2 -6 20 -6 20 9 0 9
-11 12 -21 6 -23 -12 -4 26 -82 40 -82 6 0 9 -6 6 -12 -5 -16 28 -81 51 -100
20 -17 68 -23 169 -23 39 0 69 -3 67 -7 -7 -11 4 -10 26 2 13 7 21 7 25 0 3
-5 0 -10 -7 -10 -9 0 -9 -3 2 -10 8 -5 23 -7 34 -4 11 4 16 2 12 -4 -3 -5 4
-18 16 -28 12 -11 18 -13 14 -6 -4 6 -3 12 2 12 11 0 12 -10 15 -112 3 -70 20
-106 37 -79 7 12 11 13 25 1 12 -10 18 -11 28 -1 9 10 8 11 -6 5 -14 -5 -16
-2 -11 12 4 11 12 25 18 33 8 11 8 13 -1 7 -7 -4 -13 -3 -13 3 0 5 6 11 13 14
9 3 9 11 0 36 -10 28 -10 31 3 21 8 -7 15 -29 15 -49 2 -31 3 -32 6 -8 3 16 1
36 -3 45 -4 10 -6 25 -5 36 2 12 -1 16 -10 10 -9 -5 -10 -2 -5 11 4 10 0 28
-10 44 -18 26 -62 74 -51 55 4 -7 -5 -9 -24 -6 -29 4 -55 33 -42 46 3 3 1 6
-5 6 -5 0 -18 3 -28 7 -13 5 -15 3 -9 -7 6 -10 4 -12 -9 -7 -10 4 -21 7 -24 7
-4 0 -1 4 7 9 9 6 -3 11 -35 16 -32 4 -50 3 -52 -4 -2 -6 -10 -11 -18 -11 -9
0 -13 4 -10 9 7 10 -27 21 -66 21 -18 0 -28 5 -28 14 0 8 -6 21 -13 28 -14 15
-41 70 -39 80 1 4 -6 5 -16 3 -12 -2 -18 3 -18 15 0 15 3 17 16 7 12 -9 12 -8
-1 8 -9 11 -20 31 -24 45 -8 24 -8 24 -16 5 l-8 -20 -1 20 -1 20 -9 -20 c-5
-12 -9 -14 -9 -6 -1 8 6 22 14 31 13 15 13 19 -1 36 -15 18 -15 18 -5 -2 7
-15 7 -21 -2 -21 -7 0 -13 16 -15 36 -1 20 -7 38 -12 39 -6 2 -7 9 -4 14 5 7
2 8 -5 4 -8 -5 -12 -3 -10 5 3 26 -1 40 -10 35 -5 -3 -12 1 -15 10 -3 8 -2 12
4 9 6 -4 5 5 -2 19 -6 14 -15 26 -19 26 -5 0 -6 6 -3 14 3 8 -4 20 -15 28 -12
8 -18 18 -14 21 3 4 -86 7 -199 7 -113 0 -220 3 -237 6 -24 5 -31 3 -31 -10z
m463 -26 c3 -3 -93 -5 -214 -5 -139 0 -219 4 -219 10 0 10 423 5 433 -5z m23
-34 c-1 -16 -5 -21 -12 -15 -6 5 -14 6 -18 2 -4 -4 -4 0 0 10 3 9 10 14 15 11
5 -3 9 0 9 5 0 6 2 11 4 11 2 0 3 -11 2 -24z m-438 -111 c-3 -3 -9 2 -12 12
-6 14 -5 15 5 6 7 -7 10 -15 7 -18z m485 -10 c4 -8 1 -17 -6 -21 -7 -4 -9 -4
-5 1 4 4 3 14 -3 22 -7 8 -8 13 -1 13 5 0 12 -7 15 -15z m-413 -5 c5 9 9 8 13
-3 4 -10 0 -14 -11 -13 -9 2 -17 8 -18 15 -2 8 -1 8 3 0 4 -8 7 -8 13 1z m33
-176 c-7 -19 -10 -18 -16 5 -3 13 -1 18 9 14 7 -2 10 -11 7 -19z m87 -18 c0
-3 -4 -8 -10 -11 -5 -3 -10 -1 -10 4 0 6 5 11 10 11 6 0 10 -2 10 -4z m434
-42 c3 -8 2 -12 -4 -9 -6 3 -10 10 -10 16 0 14 7 11 14 -7z m-439 -4 c3 -5 1
-10 -4 -10 -6 0 -11 5 -11 10 0 6 2 10 4 10 3 0 8 -4 11 -10z m-20 -50 c3 -5
1 -10 -4 -10 -6 0 -11 5 -11 10 0 6 2 10 4 10 3 0 8 -4 11 -10z m96 -42 c8
-16 8 -19 -1 -13 -8 5 -11 3 -8 -6 3 -8 11 -13 17 -11 6 1 11 -2 11 -8 0 -14
-16 -12 -29 4 -6 7 -9 21 -5 30 3 9 1 16 -5 16 -6 0 -11 5 -11 11 0 15 18 2
31 -23z m479 -18 c0 -5 -2 -10 -4 -10 -3 0 -8 5 -11 10 -3 6 -1 10 4 10 6 0
11 -4 11 -10z m47 -16 c-3 -3 -12 -4 -19 -1 -8 3 -5 6 6 6 11 1 17 -2 13 -5z
m-574 -19 c-3 -9 -8 -14 -10 -11 -3 3 -2 9 2 15 9 16 15 13 8 -4z m403 0 c-3
-8 0 -15 6 -15 6 0 8 -3 5 -6 -4 -4 -14 -1 -22 6 -13 11 -13 15 -3 21 18 12
21 11 14 -6z m454 -99 c0 -3 -4 -8 -10 -11 -5 -3 -10 -1 -10 4 0 6 5 11 10 11
6 0 10 -2 10 -4z m-792 -31 c-3 -3 -9 2 -12 12 -6 14 -5 15 5 6 7 -7 10 -15 7
-18z m11 -55 c0 -10 -3 -8 -9 5 -12 27 -12 43 0 25 5 -8 9 -22 9 -30z m81 -21
c0 -6 -4 -7 -10 -4 -5 3 -10 11 -10 16 0 6 5 7 10 4 6 -3 10 -11 10 -16z m694
5 c3 -8 2 -12 -4 -9 -6 3 -10 10 -10 16 0 14 7 11 14 -7z m-660 -163 c3 -5 -1
-11 -9 -14 -9 -4 -12 -1 -8 9 6 16 10 17 17 5z m96 -21 c12 -23 12 -24 -3 -11
-14 11 -17 11 -17 1 0 -8 -3 -11 -6 -7 -3 3 -3 15 1 27 8 24 7 24 25 -10z
m-32 -95 c-3 -3 -9 2 -12 12 -6 14 -5 15 5 6 7 -7 10 -15 7 -18z"/>
<path d="M2238 1943 c6 -2 18 -2 25 0 6 3 1 5 -13 5 -14 0 -19 -2 -12 -5z"/>
<path d="M3250 1460 l0 -276 33 -32 c18 -18 36 -30 39 -27 9 9 338 11 338 2 0
-5 6 -5 13 -1 7 4 8 4 2 -2 -6 -5 -83 -7 -172 -4 -119 4 -164 2 -167 -7 -4 -8
41 -12 168 -13 172 -1 172 -1 196 25 13 14 19 25 14 25 -5 0 2 6 16 13 l25 13
3 282 2 282 -65 0 -64 0 -3 -250 c-2 -138 1 -251 5 -253 9 -3 -195 2 -226 6
-17 2 -19 16 -20 217 l-1 215 -6 -205 c-5 -194 -6 -198 -9 -75 -2 72 -5 177
-6 235 -2 58 0 94 4 80 6 -22 8 -23 14 -7 12 31 -2 38 -69 36 l-64 -2 0 -277z
m114 -233 c-9 -5 -18 -6 -21 -3 -4 3 -1 6 5 6 7 0 12 8 12 18 0 14 2 15 10 2
6 -10 4 -17 -6 -23z m206 -3 c-35 -7 -199 -9 -187 -2 6 4 55 7 107 7 52 -1 88
-3 80 -5z m-283 -45 c-1 -14 -4 -15 -14 -7 -17 14 -16 25 1 25 8 0 14 -8 13
-18z m456 0 c-8 -8 -13 -7 -18 2 -5 8 -4 10 3 5 7 -4 12 -2 12 5 0 7 3 9 7 6
4 -4 2 -12 -4 -18z"/>
<path d="M3851 1703 c-1 -23 3 -44 7 -47 4 -2 6 12 4 32 -5 56 -10 62 -11 15z"/>
<path d="M3871 1688 c2 -41 10 -65 37 -106 31 -48 36 -51 51 -38 15 14 17 13
17 -4 0 -10 -3 -18 -6 -18 -20 2 -21 -4 -4 -18 10 -8 12 -13 4 -9 -11 5 -11 3
1 -7 9 -7 18 -22 20 -33 3 -15 12 -20 32 -19 23 1 26 -1 15 -15 -20 -26 -22
-27 -14 -6 6 17 5 18 -6 7 -11 -11 -9 -16 7 -28 19 -15 19 -15 -5 -11 -23 4
-32 -4 -75 -71 -28 -42 -49 -80 -47 -84 1 -4 -3 -8 -9 -8 -5 0 -7 -6 -3 -12 4
-7 4 -10 -1 -6 -17 15 -35 -16 -35 -58 l0 -44 69 0 c60 0 72 3 85 21 8 12 12
28 9 37 -4 9 -2 13 3 9 10 -6 37 23 37 39 0 5 6 14 13 19 10 7 11 14 3 25 -9
12 -10 11 -4 -5 5 -15 3 -17 -5 -9 -20 20 16 64 51 64 21 0 29 -5 28 -17 0
-11 -3 -13 -6 -5 -2 6 -16 12 -29 12 -18 0 -24 -5 -24 -22 0 -21 1 -21 13 -3
13 17 15 17 36 -4 12 -12 25 -20 30 -17 4 3 7 -5 6 -17 -2 -24 18 -72 36 -83
8 -4 8 1 -1 17 -10 21 -9 21 12 -3 20 -24 31 -28 75 -28 29 0 54 -4 57 -9 3
-4 -5 -7 -17 -5 -12 2 -43 5 -70 7 -39 4 -46 2 -36 -9 8 -9 33 -14 75 -14 l64
0 -6 42 c-5 30 -4 39 4 34 17 -10 15 -4 -10 30 -25 32 -65 36 -53 6 5 -14 4
-15 -7 -4 -11 12 -9 16 9 29 l22 15 -42 61 c-54 80 -64 91 -70 74 -4 -8 -6 -7
-6 3 -1 13 -2 13 -11 0 -8 -12 -10 -11 -10 7 0 14 5 21 13 17 8 -3 13 4 14 17
1 12 8 26 15 30 7 5 13 16 13 26 0 10 7 18 15 18 9 0 15 9 14 22 0 13 4 19 12
16 8 -3 11 4 10 22 -2 18 0 23 7 16 7 -7 19 3 38 29 31 43 36 56 17 44 -7 -5
-8 -3 -3 6 4 7 11 27 15 45 l7 32 -72 2 c-78 2 -96 -10 -75 -49 8 -16 8 -18
-5 -14 -8 3 -12 11 -9 18 3 6 -1 2 -10 -8 -8 -10 -13 -23 -10 -28 3 -4 -3 -11
-13 -15 -16 -6 -16 -8 4 -13 l22 -5 -24 -12 c-16 -7 -23 -7 -18 -1 3 7 1 8 -6
4 -9 -6 -8 -14 5 -34 l17 -27 -22 19 c-18 16 -21 17 -16 3 5 -13 2 -15 -15
-12 -45 9 -60 17 -60 33 0 13 2 13 15 -4 8 -10 14 -14 14 -9 0 16 -25 45 -32
38 -4 -3 -7 -1 -7 5 0 7 -9 12 -20 12 -20 0 -28 24 -10 35 15 9 0 34 -17 28
-12 -5 -14 -1 -8 15 6 21 3 22 -60 22 l-66 0 2 -52z m349 -65 c-11 -17 -11
-17 -6 0 3 10 6 24 7 30 0 9 2 9 5 0 3 -7 0 -20 -6 -30z m-296 -18 c-4 -8 -8
-15 -10 -15 -2 0 -4 7 -4 15 0 8 4 15 10 15 5 0 7 -7 4 -15z m334 -90 c-3 -3
-9 2 -12 12 -6 14 -5 15 5 6 7 -7 10 -15 7 -18z m-62 -59 c-1 -18 -4 -22 -13
-14 -6 5 -9 16 -6 24 8 23 21 16 19 -10z m53 -114 c8 -15 5 -18 -12 -19 -12 0
-17 1 -10 4 7 2 9 11 6 19 -8 20 4 17 16 -4z m-265 -10 c3 -5 -1 -9 -9 -9 -8
0 -12 4 -9 9 3 4 7 8 9 8 2 0 6 -4 9 -8z m93 -18 c-3 -3 -12 -4 -19 -1 -8 3
-5 6 6 6 11 1 17 -2 13 -5z m-94 -18 c3 -8 -2 -16 -13 -19 -16 -4 -17 -2 -7
14 14 23 13 23 20 5z m18 -109 c-10 -9 -11 -8 -5 6 3 10 9 15 12 12 3 -3 0
-11 -7 -18z m-127 -32 c-2 -26 -1 -26 59 -23 45 2 61 7 59 16 -1 8 2 11 7 7 6
-3 8 -12 4 -20 -3 -11 -21 -15 -58 -15 -29 0 -60 -2 -67 -5 -10 -4 -15 4 -16
30 -2 19 1 35 6 35 5 0 8 -11 6 -25z"/>
<path d="M4468 1443 c2 -220 6 -299 15 -305 8 -5 5 -8 -8 -8 -15 0 -17 -2 -6
-9 11 -7 11 -9 0 -14 -8 -3 102 -6 244 -6 175 -1 257 2 257 10 0 5 -4 7 -10 4
-5 -3 -10 1 -10 10 0 9 -4 14 -9 10 -6 -3 -8 13 -6 37 l3 43 -149 -3 c-97 -2
-149 1 -149 7 0 7 54 12 143 14 l142 3 -152 1 c-93 1 -153 -3 -153 -9 0 -5 -5
-6 -10 -3 -6 4 -8 11 -5 16 4 5 2 9 -3 9 -6 0 -12 20 -13 44 -3 29 0 42 7 39
6 -2 14 3 17 11 4 11 1 16 -11 16 -14 0 -15 2 -2 10 10 6 17 5 23 -5 6 -11 30
-15 97 -15 97 0 97 0 92 62 -1 9 5 22 13 28 8 7 15 20 15 29 0 12 -2 13 -9 3
-7 -11 -9 -11 -14 2 -5 13 -25 16 -118 16 -95 0 -110 2 -105 15 3 8 0 15 -7
15 -8 0 -6 4 3 10 8 5 10 10 5 10 -6 0 -11 9 -11 19 0 11 4 17 10 14 5 -4 6 6
2 23 -4 16 -3 24 1 19 5 -6 72 -10 170 -10 l162 0 20 60 c12 39 16 64 10 70
-7 6 -13 5 -19 -5 -7 -10 -10 -11 -10 -2 0 9 -53 12 -232 12 l-233 0 3 -297z
m52 -3 c0 -187 -4 -290 -10 -290 -6 0 -10 103 -10 290 0 187 4 290 10 290 6 0
10 -103 10 -290z m423 240 c-3 -12 -8 -19 -11 -16 -5 6 5 36 12 36 2 0 2 -9
-1 -20z m-323 -216 c0 -2 -9 -4 -20 -4 -11 0 -20 4 -20 9 0 5 9 7 20 4 11 -3
20 -7 20 -9z m193 -11 c3 -5 -23 -7 -56 -5 -111 5 -124 9 -35 10 48 1 89 -1
91 -5z m-153 -83 c13 -8 13 -10 -2 -10 -9 0 -20 5 -23 10 -8 13 5 13 25 0z
m70 -6 c0 -2 -7 -4 -15 -4 -8 0 -15 4 -15 10 0 5 7 7 15 4 8 -4 15 -8 15 -10z
m60 0 c0 -2 -7 -4 -15 -4 -8 0 -15 4 -15 10 0 5 7 7 15 4 8 -4 15 -8 15 -10z"/>
<path d="M4020 1660 c0 -6 7 -10 15 -10 8 0 15 2 15 4 0 2 -7 6 -15 10 -8 3
-15 1 -15 -4z"/>
<path d="M2200 1541 c0 -6 4 -13 10 -16 6 -3 7 1 4 9 -7 18 -14 21 -14 7z"/>
<path d="M3020 1486 c0 -10 8 -16 22 -16 12 0 19 1 17 3 -2 1 -12 9 -21 16
-15 12 -18 11 -18 -3z"/>
<path d="M6735 1344 c-27 -8 -70 -19 -94 -25 -25 -5 -48 -14 -52 -21 -4 -6
-14 -8 -23 -5 -21 8 -77 -3 -70 -14 3 -5 -2 -6 -10 -3 -9 3 -24 3 -33 -1 -10
-4 -25 -9 -33 -10 -54 -7 -90 -17 -85 -26 4 -5 11 -7 16 -3 12 7 39 -14 39
-29 0 -6 -6 -3 -13 8 -8 10 -19 15 -25 11 -16 -10 -15 -29 1 -20 7 4 9 3 4 -2
-5 -5 -12 -9 -15 -10 -4 0 -15 -4 -24 -8 -9 -4 -25 -6 -35 -3 -12 3 -8 5 10 6
19 1 26 5 21 13 -5 7 -3 8 5 3 9 -5 12 -2 9 11 -5 26 -39 29 -86 6 -22 -11
-52 -18 -67 -16 -22 2 -26 -1 -22 -16 3 -13 0 -17 -9 -13 -8 3 -11 10 -8 15 4
6 -1 8 -12 5 -11 -3 -36 -9 -57 -13 -34 -6 -36 -8 -20 -20 17 -13 17 -14 1 -8
-10 3 -18 2 -18 -2 0 -5 -16 -9 -35 -10 -22 0 -31 3 -23 8 10 6 9 8 -3 8 -40
0 -59 -60 -23 -74 18 -7 74 4 74 15 0 4 9 6 19 4 28 -5 62 6 54 18 -4 7 0 8
12 3 24 -9 57 2 48 17 -5 9 -3 9 8 0 12 -10 26 -9 65 3 27 9 58 17 69 19 11 1
22 4 25 5 3 2 10 4 15 4 6 1 38 8 73 15 57 13 63 16 58 35 -4 18 -3 19 7 5 8
-11 22 -15 45 -11 26 3 30 7 21 18 -6 7 -9 19 -6 26 4 8 6 7 6 -4 1 -10 5 -18
10 -18 5 0 18 -3 28 -6 15 -5 16 -4 3 6 -12 9 -9 10 14 5 16 -3 41 -2 55 3 14
5 45 15 68 22 23 7 41 16 39 19 -2 3 12 6 32 6 32 0 37 3 38 25 3 42 -14 47
-91 24z m72 0 c-3 -3 -12 -4 -19 -1 -8 3 -5 6 6 6 11 1 17 -2 13 -5z m-32 -20
c19 -16 19 -16 -5 -9 -31 9 -50 25 -29 25 7 0 23 -8 34 -16z m43 -19 c-3 -3
-9 2 -12 12 -6 14 -5 15 5 6 7 -7 10 -15 7 -18z m-207 -40 c19 -8 27 -14 19
-14 -14 0 -72 28 -59 29 4 0 22 -7 40 -15z m-318 -52 c-7 -2 -19 -2 -25 0 -7
3 -2 5 12 5 14 0 19 -2 13 -5z m-35 -40 c2 -7 -1 -13 -8 -13 -6 0 -9 4 -5 9 3
5 -3 12 -12 15 -15 4 -15 5 1 3 11 -1 21 -8 24 -14z m-128 -8 c10 -13 9 -15
-11 -15 -18 0 -20 3 -10 9 11 7 10 10 -5 14 -14 4 -15 5 -3 6 9 0 22 -6 29
-14z m-40 -9 c0 -26 -81 -49 -94 -28 -3 5 8 7 23 4 18 -2 34 2 42 12 13 14 29
21 29 12z"/>
<path d="M4602 1290 c0 -19 2 -27 5 -17 2 9 2 25 0 35 -3 9 -5 1 -5 -18z"/>
<path d="M5058 1169 c-14 -8 -17 -23 -16 -80 0 -38 -2 -73 -6 -76 -4 -4 -78
-7 -164 -5 -222 3 -204 3 -562 -1 -179 -1 -309 0 -290 3 19 4 -59 7 -175 7
-115 0 -196 -3 -180 -7 l30 -7 -30 -5 c-16 -3 24 -7 90 -8 73 -2 98 -5 65 -8
-86 -6 -313 10 -270 19 21 5 -13 7 -82 5 -65 -2 -118 1 -118 5 0 5 -16 9 -35
9 -19 0 -35 -4 -35 -10 0 -5 -11 -10 -25 -10 -14 0 -25 4 -25 9 0 5 -128 10
-302 10 -184 1 -298 -3 -292 -8 5 -5 23 -11 39 -13 29 -3 29 -4 -7 -9 -20 -3
-35 -2 -34 1 2 3 -5 14 -15 24 -15 15 -19 16 -19 5 0 -8 6 -21 13 -28 8 -10 8
-12 0 -7 -6 3 -18 -3 -26 -14 -7 -11 -17 -17 -22 -12 -4 4 -6 -1 -2 -10 3 -9
0 -19 -8 -22 -9 -3 -12 0 -8 10 3 9 -1 14 -13 14 -16 0 -17 -2 -4 -10 8 -5 11
-10 6 -10 -5 0 -3 -6 4 -14 6 -8 19 -12 27 -9 11 4 14 2 9 -5 -5 -8 1 -12 16
-12 13 0 250 0 528 1 278 1 537 1 575 0 616 -8 1347 -2 1338 12 -3 5 -2 8 3 4
5 -3 8 -38 7 -78 -1 -41 3 -79 9 -86 15 -19 578 -19 578 0 0 8 3 7 10 -3 14
-23 25 -3 12 24 -9 20 -8 24 6 22 9 -2 18 -9 20 -16 3 -7 0 -10 -7 -6 -7 5 -9
1 -4 -9 5 -13 7 -14 14 -3 13 19 11 375 -1 399 -6 10 -21 19 -33 18 l-22 0 23
-9 c36 -15 26 -17 -35 -8 -32 5 -137 10 -233 12 -96 2 -185 6 -197 10 -14 5
-23 3 -23 -3 0 -6 -20 -11 -47 -11 -35 0 -44 3 -33 10 20 13 0 12 -22 -1z
m460 -26 c-15 -2 -42 -2 -60 0 -18 2 -6 4 27 4 33 0 48 -2 33 -4z m-338 -70
c0 -12 -3 -13 -14 -4 -11 9 -18 8 -30 -4 -15 -15 -16 -15 -16 3 0 14 7 19 30
20 21 0 30 -4 30 -15z m230 6 c33 -1 24 -4 -34 -10 -44 -5 -82 -6 -85 -4 -2 3
9 6 25 6 l29 1 -30 9 c-26 7 -25 8 10 4 22 -3 60 -5 85 -6z m-195 -9 c3 -5 1
-10 -4 -10 -6 0 -11 5 -11 10 0 6 2 10 4 10 3 0 8 -4 11 -10z m58 3 c-7 -2
-21 -2 -30 0 -10 3 -4 5 12 5 17 0 24 -2 18 -5z m267 -8 c-11 -13 -8 -15 15
-15 23 0 25 -2 16 -14 -12 -15 -12 -126 0 -136 4 -3 3 -15 -2 -27 -8 -23 -10
-23 -213 -23 l-205 0 -3 96 c-2 53 -1 98 1 100 2 2 87 4 188 4 154 0 185 2
189 15 4 8 11 15 16 15 6 0 5 -6 -2 -15z m-423 -82 c-3 -10 -5 -4 -5 12 0 17
2 24 5 18 2 -7 2 -21 0 -30z m-2314 20 c-7 -2 -21 -2 -30 0 -10 3 -4 5 12 5
17 0 24 -2 18 -5z m367 -3 c0 -5 -28 -11 -62 -11 -56 -1 -59 -3 -28 -10 28 -6
24 -7 -20 -4 -30 2 -84 8 -120 12 -64 8 -63 8 55 13 66 4 132 7 148 8 15 1 27
-2 27 -8z m633 3 c-7 -2 -21 -2 -30 0 -10 3 -4 5 12 5 17 0 24 -2 18 -5z
m1774 -25 c-3 -7 -5 -2 -5 12 0 14 2 19 5 13 2 -7 2 -19 0 -25z m-2244 15 c-7
-2 -21 -2 -30 0 -10 3 -4 5 12 5 17 0 24 -2 18 -5z m1332 -3 c-16 -4 -70 -7
-120 -7 l-90 1 95 6 c142 9 151 9 115 0z m382 4 c-3 -3 -12 -4 -19 -1 -8 3 -5
6 6 6 11 1 17 -2 13 -5z m-2244 -11 c-7 -2 -21 -2 -30 0 -10 3 -4 5 12 5 17 0
24 -2 18 -5z m1350 0 c-40 -2 -106 -2 -145 0 -40 1 -8 3 72 3 80 0 112 -2 73
-3z m590 0 c-7 -2 -21 -2 -30 0 -10 3 -4 5 12 5 17 0 24 -2 18 -5z m-1820 -10
c-7 -2 -21 -2 -30 0 -10 3 -4 5 12 5 17 0 24 -2 18 -5z m645 0 c-10 -2 -26 -2
-35 0 -10 3 -2 5 17 5 19 0 27 -2 18 -5z m-880 -70 c-10 -2 -26 -2 -35 0 -10
3 -2 5 17 5 19 0 27 -2 18 -5z m825 0 c-7 -2 -21 -2 -30 0 -10 3 -4 5 12 5 17
0 24 -2 18 -5z m745 0 c-15 -2 -42 -2 -60 0 -18 2 -6 4 27 4 33 0 48 -2 33 -4z
m180 0 c-15 -2 -42 -2 -60 0 -18 2 -6 4 27 4 33 0 48 -2 33 -4z m699 -40 c-3
-10 -5 -2 -5 17 0 19 2 27 5 18 2 -10 2 -26 0 -35z m-1154 30 c-7 -2 -21 -2
-30 0 -10 3 -4 5 12 5 17 0 24 -2 18 -5z m1133 -40 c-10 -10 -19 5 -10 18 6
11 8 11 12 0 2 -7 1 -15 -2 -18z"/>
<path d="M5588 1163 c6 -2 18 -2 25 0 6 3 1 5 -13 5 -14 0 -19 -2 -12 -5z"/>
<path d="M5998 1163 c7 -3 16 -2 19 1 4 3 -2 6 -13 5 -11 0 -14 -3 -6 -6z"/>
<path d="M8200 1077 c-30 -16 -51 -37 -67 -67 -37 -70 -28 -128 30 -188 76
-79 208 -59 258 39 42 83 8 182 -75 220 -55 25 -94 24 -146 -4z m125 -41 c85
-36 85 -160 0 -200 -44 -21 -84 -14 -125 20 -59 50 -46 144 24 178 39 19 58
20 101 2z"/>
<path d="M4473 1013 c9 -2 25 -2 35 0 9 3 1 5 -18 5 -19 0 -27 -2 -17 -5z"/>
<path d="M5844 962 c-6 -4 -13 -14 -16 -22 -14 -39 1 -40 558 -37 488 2 538 4
547 19 8 12 7 21 -2 32 -12 14 -72 16 -545 16 -292 0 -536 -4 -542 -8z m14
-22 c-7 -10 -14 -17 -17 -15 -4 4 18 35 25 35 2 0 -1 -9 -8 -20z"/>
<path d="M4244 673 c3 -76 9 -173 12 -215 l6 -78 33 0 c33 0 34 1 39 53 3 28
8 118 11 199 5 144 5 147 -17 162 -12 9 -38 16 -56 16 l-34 0 6 -137z"/>
<path d="M5940 795 c-28 -34 27 -75 77 -59 14 4 15 3 5 -4 -11 -7 -8 -11 9
-15 13 -4 28 -2 33 3 12 12 29 13 22 1 -7 -11 138 -52 161 -45 15 5 16 4 3 -6
-12 -9 -10 -10 14 -5 17 4 36 0 50 -9 20 -13 24 -12 34 4 9 15 7 19 -16 25
l-27 7 24 9 c13 5 26 7 29 4 11 -11 11 -40 -1 -47 -9 -5 -9 -10 0 -19 8 -8 16
-8 33 1 12 6 24 9 28 6 3 -3 -1 -6 -8 -6 -34 0 11 -22 48 -23 22 -1 38 -6 35
-10 -3 -4 7 -5 21 -1 14 3 26 2 26 -3 0 -5 6 -10 13 -11 6 0 36 -7 65 -15 47
-14 53 -14 62 1 9 14 10 13 5 -5 -6 -20 -3 -22 28 -21 19 1 38 -2 43 -5 6 -3
16 -2 24 4 13 7 12 9 -2 9 -9 0 -19 4 -23 10 -3 5 7 5 25 -2 38 -13 53 -3 17
11 -14 6 -30 18 -35 28 -6 10 -12 16 -14 14 -2 -2 -14 -1 -27 4 -17 5 -26 3
-33 -9 -5 -9 -14 -16 -21 -16 -7 0 -6 4 3 10 13 9 13 10 0 10 -13 0 -13 1 0
10 13 9 13 10 0 10 -9 0 -24 -6 -35 -13 -16 -10 -31 -10 -75 -1 -30 7 -46 13
-35 14 11 1 31 3 45 6 19 3 21 2 10 -6 -12 -7 -8 -10 17 -10 30 0 56 16 30 18
-7 0 -39 8 -72 18 -33 9 -77 17 -97 16 -24 0 -36 4 -32 10 4 6 1 8 -7 6 -8 -3
-13 -10 -12 -16 2 -6 -4 -9 -13 -5 -11 4 -12 8 -4 13 15 9 -4 17 -101 40 -42
11 -86 16 -99 13 -16 -4 -21 -3 -16 5 5 9 0 9 -19 2 -32 -12 -35 -12 -35 -1 0
5 8 12 18 14 9 3 -3 3 -28 1 -25 -2 -36 -1 -25 3 16 4 11 8 -24 19 -30 9 -50
10 -63 3 -11 -6 -18 -6 -18 0 0 16 -28 20 -40 6z m264 -91 c6 -15 4 -15 -11
-3 -10 7 -20 15 -22 16 -2 2 3 3 11 3 9 0 19 -7 22 -16z m112 -31 c-6 -6 -36
9 -36 18 0 5 9 4 20 -3 10 -7 18 -14 16 -15z m284 -73 c0 -5 -2 -10 -4 -10 -3
0 -8 5 -11 10 -3 6 -1 10 4 10 6 0 11 -4 11 -10z m60 -16 c0 -2 -9 -4 -20 -4
-11 0 -20 4 -20 9 0 5 9 7 20 4 11 -3 20 -7 20 -9z"/>
<path d="M2725 690 c-3 -5 -3 -10 2 -10 4 0 7 -65 6 -145 -1 -86 2 -145 8
-145 5 0 9 3 9 8 0 4 42 5 94 2 61 -3 92 -2 88 5 -3 6 2 4 11 -4 21 -17 35 -7
19 12 -7 8 -9 17 -5 20 8 8 12 8 -101 9 -48 0 -83 4 -76 8 8 5 8 9 -4 13 -9 4
-16 -1 -19 -11 -3 -9 -5 40 -6 110 -1 115 -9 155 -26 128z"/>
<path d="M2854 692 l-90 -3 -2 -107 c-1 -73 1 -102 8 -91 5 9 10 55 11 103 l1
86 87 -2 86 -2 -83 -3 c-45 -2 -81 -7 -78 -11 2 -4 40 -6 85 -4 60 3 81 7 81
17 0 20 -5 20 -106 17z"/>
<path d="M3030 565 c0 -97 3 -135 13 -138 10 -4 10 -6 0 -6 -7 -1 -13 -6 -13
-12 0 -5 5 -7 10 -4 6 3 10 1 10 -4 0 -7 35 -11 96 -11 61 0 93 4 89 10 -3 6
-2 10 3 10 5 0 12 9 15 19 4 18 -1 19 -84 18 -49 -1 -89 2 -89 7 0 5 -6 4 -12
-2 -10 -8 -13 -4 -13 13 0 15 4 21 9 15 21 -21 24 -7 25 103 l2 112 -31 2 -30
2 0 -134z m43 112 c4 3 7 -35 7 -85 0 -55 -4 -92 -10 -92 -6 0 -10 34 -10 83
0 52 -5 88 -12 97 -11 12 -10 12 3 2 9 -6 19 -9 22 -5z"/>
<path d="M3340 548 l-1 -148 88 -1 c48 0 103 -2 121 -4 27 -3 32 0 28 12 -3 8
-6 17 -6 19 0 3 -4 2 -10 -1 -5 -3 -10 1 -10 11 0 14 -10 16 -75 12 l-75 -3 1
55 c1 30 3 47 6 38 2 -10 13 -18 23 -18 13 0 17 5 14 15 -4 8 -11 12 -18 8 -6
-3 -5 0 3 8 10 11 15 11 18 2 3 -7 14 -13 26 -14 21 0 21 -1 2 -9 -19 -8 -19
-9 3 -9 12 -1 22 3 22 8 0 13 -26 32 -33 24 -4 -3 -7 -1 -7 5 0 6 12 13 28 15
23 3 22 4 -8 5 -19 1 -41 -2 -49 -7 -9 -6 -19 -4 -28 4 -15 16 -18 65 -2 65 5
0 8 4 5 9 -3 4 27 9 66 10 40 1 75 5 78 10 3 4 12 10 20 13 8 3 -40 7 -107 9
l-121 4 -2 -147z m63 120 c-12 -6 -24 -18 -26 -27 -3 -9 -5 -4 -6 12 -1 23 3
27 27 26 26 0 26 -1 5 -11z m120 5 c-13 -2 -35 -2 -50 0 -16 2 -5 4 22 4 28 0
40 -2 28 -4z m-146 -75 c-3 -8 -6 -5 -6 6 -1 11 2 17 5 13 3 -3 4 -12 1 -19z
m156 -178 c-3 -12 -8 -19 -11 -16 -5 6 5 36 12 36 2 0 2 -9 -1 -20z"/>
<path d="M3736 685 c4 -8 1 -15 -4 -15 -14 0 -44 -104 -32 -108 5 -2 2 -14 -6
-27 -9 -13 -13 -29 -9 -35 4 -6 1 -9 -6 -8 -7 2 -14 -6 -16 -17 -3 -16 -2 -17
6 -5 10 13 11 13 11 0 1 -12 3 -11 11 3 5 9 8 21 5 25 -2 4 3 16 11 27 15 19
15 19 8 -5 -12 -47 -27 -80 -34 -75 -4 2 -8 -9 -8 -25 0 -18 6 -30 14 -30 13
0 16 10 14 45 -2 17 0 18 9 5 9 -12 11 -10 9 10 -2 45 1 61 11 55 6 -3 11 -3
11 2 1 4 3 19 6 33 2 14 5 33 6 42 1 9 3 15 6 13 2 -3 10 3 18 13 13 16 13 15
4 -4 -11 -23 -1 -46 20 -42 15 3 16 -12 5 -52 l-7 -25 21 24 c11 13 23 22 25
19 3 -3 -4 -15 -15 -28 -11 -12 -17 -26 -15 -30 3 -5 -1 -10 -7 -13 -10 -3 -9
-8 2 -22 8 -10 10 -16 4 -12 -7 4 -14 -2 -17 -13 -5 -18 0 -20 40 -20 27 0 42
4 38 10 -3 6 0 10 7 10 9 0 9 3 -2 10 -10 6 -11 10 -2 10 6 0 12 5 12 11 0 5
-3 8 -7 6 -5 -3 -9 6 -10 20 0 14 -5 28 -10 32 -4 3 -9 17 -11 31 -1 14 -7 26
-12 28 -5 2 -8 9 -6 15 1 7 1 9 -1 4 -9 -15 -23 5 -22 31 0 24 1 25 9 7 15
-35 11 -2 -6 40 -8 23 -21 42 -29 42 -7 0 -11 -6 -8 -14 3 -7 0 -13 -6 -13 -7
0 -14 7 -17 15 -4 8 -10 15 -15 15 -4 0 -6 -7 -3 -15z m-5 -62 c-8 -15 -10
-15 -11 -2 0 17 10 32 18 25 2 -3 -1 -13 -7 -23z"/>
<path d="M3965 690 l-30 -8 30 -2 c18 -1 23 -4 13 -7 -16 -4 -18 -18 -18 -117
0 -64 -4 -116 -10 -122 -16 -16 -1 -44 24 -44 20 0 21 5 20 85 0 47 4 85 8 85
4 0 8 -6 9 -12 0 -7 4 -4 9 7 5 11 9 14 9 7 1 -7 5 -11 9 -8 5 3 9 -1 9 -9 0
-8 -5 -12 -11 -9 -6 3 8 -13 31 -35 23 -23 40 -41 36 -41 -3 0 0 -7 7 -15 6
-8 15 -14 18 -13 20 2 25 -3 12 -12 -13 -9 -13 -10 0 -10 13 0 13 -1 0 -10
-21 -14 5 -13 31 0 20 12 26 32 8 27 -8 -1 -12 16 -11 50 0 43 -2 51 -16 46
-11 -5 -13 -3 -7 6 5 10 2 11 -13 7 -20 -7 -52 15 -52 35 0 5 -7 9 -16 9 -9 0
-12 5 -8 12 4 7 3 8 -4 4 -8 -4 -16 3 -22 18 -5 14 -16 26 -24 26 -11 0 -14 8
-11 30 2 17 3 29 2 29 -1 -1 -15 -5 -32 -9z"/>
<path d="M4130 628 c0 -43 4 -78 8 -78 5 0 7 15 6 33 l-3 32 8 -33 c15 -56 21
-48 20 24 -1 53 -3 62 -9 39 -7 -28 -8 -29 -9 -4 0 14 4 30 10 36 8 8 8 13 0
17 -6 4 -11 1 -11 -6 0 -9 -3 -9 -10 2 -7 10 -10 -9 -10 -62z"/>
<path d="M4178 593 c4 -163 9 -174 11 -25 0 72 -2 132 -6 132 -5 0 -7 -48 -5
-107z"/>
<path d="M4430 551 c0 -144 1 -149 20 -144 11 3 20 0 20 -6 0 -6 4 -11 8 -11
5 0 10 27 11 60 2 46 -1 60 -12 60 -7 0 -14 7 -14 15 0 11 4 12 14 4 12 -11
18 -2 15 22 -1 4 6 6 16 5 9 0 16 5 15 12 -2 6 2 12 8 12 6 0 9 -6 6 -14 -3
-8 2 -16 14 -19 10 -3 19 -12 19 -21 0 -13 -4 -12 -21 5 -11 11 -23 18 -26 15
-3 -3 19 -31 50 -62 32 -33 53 -62 50 -70 -3 -8 3 -17 13 -21 10 -4 19 -2 22
5 2 7 7 10 10 8 4 -2 7 63 7 144 0 81 -3 146 -7 144 -4 -3 -7 -63 -7 -136 0
-106 -3 -133 -15 -144 -9 -8 -12 -9 -6 -2 6 8 2 17 -12 30 -12 10 -17 18 -12
18 5 0 0 7 -10 15 -18 13 -18 15 -3 15 10 0 22 -11 27 -25 5 -14 12 -25 15
-25 3 0 5 56 5 125 0 98 -3 125 -13 125 -10 0 -14 -15 -14 -50 -1 -30 3 -47 9
-44 5 3 4 -3 -4 -15 -10 -17 -10 -25 -1 -41 9 -14 10 -21 1 -26 -7 -5 -8 -3
-3 6 6 10 4 12 -11 6 -10 -4 -15 -4 -11 0 9 9 -13 35 -24 28 -5 -3 -9 1 -9 9
0 8 -10 22 -22 33 -13 12 -18 13 -13 4 8 -13 6 -13 -8 -1 -9 7 -14 17 -11 22
8 14 -39 29 -49 15 -4 -6 -6 -3 -5 9 3 39 -2 55 -17 55 -13 0 -15 -23 -15
-149z m37 -118 c15 -12 15 -13 -4 -13 -20 0 -21 4 -20 133 l1 132 3 -120 c3
-98 6 -122 20 -132z m0 20 c-3 -10 -5 -2 -5 17 0 19 2 27 5 18 2 -10 2 -26 0
-35z"/>
<path d="M4475 690 c-3 -5 -1 -10 4 -10 6 0 11 5 11 10 0 6 -2 10 -4 10 -3 0
-8 -4 -11 -10z"/>
<path d="M4792 678 c-7 -7 -12 -17 -12 -22 0 -6 5 -5 12 2 7 7 17 12 23 12 5
0 2 -7 -8 -14 -10 -8 -17 -18 -15 -22 1 -5 -2 -35 -6 -66 -5 -38 -3 -64 4 -78
6 -12 9 -24 6 -27 -3 -3 -10 5 -14 18 -5 13 -13 22 -18 19 -5 -3 -10 9 -11 25
l-2 30 9 -30 c9 -29 9 -29 7 7 -2 20 1 34 5 32 5 -3 7 15 6 41 0 25 -6 49 -11
52 -6 3 -7 1 -3 -5 4 -7 1 -12 -8 -12 -13 0 -16 -15 -15 -92 0 -51 3 -87 6
-80 8 20 25 14 18 -7 -3 -11 -1 -22 5 -26 5 -3 10 -1 10 4 0 6 4 11 9 11 5 0
7 -10 4 -22 -3 -17 -2 -19 5 -10 7 11 10 9 15 -7 5 -20 10 -21 79 -15 40 3 78
7 84 9 6 2 12 29 13 60 l2 56 -33 -3 c-31 -3 -33 -5 -30 -35 3 -29 0 -33 -20
-34 -13 -1 -32 -2 -43 -3 -11 0 -32 12 -48 29 -26 27 -28 33 -21 80 5 41 13
57 45 86 28 26 40 31 44 21 3 -8 12 -11 25 -7 11 4 20 3 19 -2 -5 -32 3 -43
31 -43 27 0 30 3 30 30 0 28 -3 30 -37 31 l-38 2 40 7 c30 5 17 8 -55 9 -63 1
-100 -3 -108 -11z m65 -4 c-3 -3 -12 -4 -19 -1 -8 3 -5 6 6 6 11 1 17 -2 13
-5z m-7 -19 c0 -2 -10 -10 -22 -16 -21 -11 -22 -11 -9 4 13 16 31 23 31 12z
m-93 -57 c-3 -7 -5 -2 -5 12 0 14 2 19 5 13 2 -7 2 -19 0 -25z"/>
<path d="M3944 555 c0 -66 1 -92 3 -57 2 34 2 88 0 120 -2 31 -3 3 -3 -63z"/>
<path d="M6780 600 c0 -4 11 -10 25 -12 13 -3 22 -2 20 2 -7 11 -45 20 -45 10z"/>
<path d="M6830 562 c0 -7 -9 -12 -19 -12 -11 0 -23 -4 -26 -10 -3 -5 3 -10 13
-10 21 0 49 27 38 37 -3 3 -6 1 -6 -5z"/>
<path d="M3796 545 c-9 -26 -7 -32 5 -12 6 10 9 21 6 23 -2 3 -7 -2 -11 -11z"/>
<path d="M4887 531 c9 -11 21 -17 27 -14 6 4 26 10 46 14 31 7 30 8 -12 5 -27
-2 -48 1 -48 6 0 4 -7 8 -15 8 -12 0 -12 -3 2 -19z"/>
<path d="M3772 427 c-16 -37 -15 -41 4 -23 8 9 14 24 11 34 -3 13 -6 11 -15
-11z"/>
<path d="M3649 428 c0 -2 -2 -11 -4 -20 -5 -25 11 -23 18 2 3 11 1 20 -4 20
-5 0 -9 -1 -10 -2z"/>
<path d="M3256 403 c-6 -14 -5 -15 5 -6 7 7 10 15 7 18 -3 3 -9 -2 -12 -12z"/>
<path d="M4192 348 c-7 -7 -12 -25 -12 -40 l0 -28 109 0 c64 0 112 4 116 10 4
6 4 24 0 40 l-6 29 -98 0 c-60 0 -102 -4 -109 -11z m44 -13 c17 6 18 6 1 -5
-9 -6 -22 -8 -27 -5 -6 3 -10 1 -10 -4 0 -7 38 -12 103 -13 l102 -2 -95 -5
c-109 -7 -120 -5 -120 18 0 23 12 34 20 21 4 -6 15 -8 26 -5z m81 -1 c-3 -3
-12 -4 -19 -1 -8 3 -5 6 6 6 11 1 17 -2 13 -5z"/>
<path d="M4184 231 c4 -5 1 -11 -5 -13 -6 -2 -12 -28 -12 -58 -1 -45 -5 -58
-24 -74 -13 -10 -22 -21 -19 -24 3 -3 -2 -11 -12 -19 -15 -12 -15 -13 8 -10
14 1 31 6 38 10 7 5 12 4 12 -2 0 -6 5 -11 10 -11 19 0 10 28 -10 33 -11 3
-20 0 -20 -6 0 -6 -2 -8 -5 -5 -3 3 -2 13 1 22 5 14 9 15 15 5 10 -17 20 -7
22 22 1 13 8 31 16 39 13 13 14 13 8 -4 -4 -10 -2 -25 5 -34 7 -8 13 -20 14
-26 0 -6 2 -19 2 -28 1 -12 10 -18 25 -18 21 0 25 8 36 55 7 30 10 59 6 65 -3
5 1 10 9 10 11 0 16 -10 17 -27 1 -42 9 -77 19 -87 12 -12 42 -17 35 -6 -3 5
0 12 6 15 5 4 8 13 5 20 -2 7 4 15 15 18 17 5 19 9 10 26 -6 11 -11 26 -10 33
0 7 5 0 11 -16 7 -18 13 -24 18 -16 5 8 9 6 14 -6 4 -10 4 -15 0 -12 -13 13
-32 -16 -22 -35 5 -9 7 -21 4 -25 -3 -5 10 -8 29 -8 21 1 31 4 25 11 -4 5 -20
47 -35 93 l-27 82 -49 0 c-27 0 -49 5 -49 10 0 6 -30 10 -71 10 -40 0 -68 -4
-65 -9z m106 -21 c11 -7 5 -8 -20 -4 -43 8 -51 14 -19 14 13 0 31 -5 39 -10z
m130 -35 c0 -5 -5 -3 -10 5 -5 8 -10 20 -10 25 0 6 5 3 10 -5 5 -8 10 -19 10
-25z m-80 -10 c0 -8 -2 -15 -4 -15 -2 0 -6 7 -10 15 -3 8 -1 15 4 15 6 0 10
-7 10 -15z m120 -116 c0 -6 -4 -7 -10 -4 -5 3 -10 11 -10 16 0 6 5 7 10 4 6
-3 10 -11 10 -16z"/>
<path d="M4358 233 c12 -2 30 -2 40 0 9 3 -1 5 -23 4 -22 0 -30 -2 -17 -4z"/>
</g>
</svg>
